<svg xmlns="http://www.w3.org/2000/svg" xmlns:xlink="http://www.w3.org/1999/xlink" width="50" zoomAndPan="magnify" viewBox="0 0 37.5 32.999998" height="44" preserveAspectRatio="xMidYMid meet" version="1.0"><defs><clipPath id="1508933acd"><path d="M 3.257812 1.28125 L 33.601562 1.28125 L 33.601562 31.625 L 3.257812 31.625 Z M 3.257812 1.28125 " clip-rule="nonzero"/></clipPath></defs><g clip-path="url(#1508933acd)"><path fill="#a0191c" d="M 30.320312 23.339844 C 29.445312 24.851562 27.683594 25.535156 26.070312 25.109375 L 21.648438 29.53125 L 21.167969 29.050781 C 20.480469 29.746094 19.527344 30.175781 18.476562 30.175781 C 16.382812 30.175781 14.683594 28.476562 14.683594 26.386719 C 14.683594 24.789062 15.671875 23.421875 17.070312 22.863281 L 15.683594 21.480469 L 15.117188 22.042969 L 14.636719 22.523438 L 13.703125 21.585938 C 13.652344 22.84375 12.980469 24.050781 11.808594 24.726562 C 9.996094 25.769531 7.675781 25.152344 6.628906 23.339844 C 5.585938 21.523438 6.203125 19.203125 8.015625 18.160156 C 9.582031 17.253906 11.523438 17.59375 12.699219 18.867188 L 23.132812 8.433594 L 23.617188 7.953125 L 24.449219 8.785156 C 24.65625 8.59375 24.886719 8.417969 25.140625 8.273438 C 26.953125 7.226562 29.269531 7.847656 30.320312 9.660156 C 31.367188 11.472656 30.746094 13.792969 28.933594 14.839844 C 28.820312 14.90625 28.703125 14.964844 28.585938 15.015625 L 29.578125 16.007812 L 30.625 14.960938 L 33.421875 17.757812 L 30.703125 20.476562 C 30.949219 21.410156 30.839844 22.4375 30.320312 23.339844 Z M 6.628906 9.660156 C 7.675781 7.847656 9.996094 7.226562 11.808594 8.273438 C 13.621094 9.320312 14.242188 11.636719 13.199219 13.449219 C 12.148438 15.265625 9.832031 15.886719 8.015625 14.839844 C 6.203125 13.792969 5.585938 11.472656 6.628906 9.660156 Z M 18.476562 2.824219 C 20.570312 2.824219 22.265625 4.519531 22.265625 6.613281 C 22.265625 8.707031 20.570312 10.40625 18.476562 10.40625 C 16.382812 10.40625 14.683594 8.707031 14.683594 6.613281 C 14.683594 4.519531 16.382812 2.824219 18.476562 2.824219 Z M 18.476562 1.28125 C 10.070312 1.28125 3.257812 8.09375 3.257812 16.5 C 3.257812 24.902344 10.070312 31.71875 18.476562 31.71875 C 26.878906 31.71875 33.695312 24.902344 33.695312 16.5 C 33.695312 8.09375 26.878906 1.28125 18.476562 1.28125 " fill-opacity="1" fill-rule="nonzero"/></g><path fill="#a0191c" d="M 30.902344 18.730469 L 30.347656 19.285156 C 30.324219 19.308594 30.292969 19.320312 30.257812 19.320312 C 30.226562 19.320312 30.191406 19.308594 30.167969 19.28125 L 30.117188 19.230469 L 29.246094 18.363281 L 29.238281 18.351562 C 29.1875 18.304688 29.1875 18.222656 29.238281 18.171875 L 29.792969 17.621094 C 29.816406 17.597656 29.847656 17.582031 29.878906 17.582031 C 29.914062 17.582031 29.945312 17.597656 29.96875 17.621094 L 30.902344 18.550781 C 30.949219 18.601562 30.949219 18.679688 30.902344 18.730469 Z M 29.355469 20.277344 L 28.800781 20.832031 C 28.777344 20.855469 28.746094 20.863281 28.714844 20.863281 C 28.679688 20.863281 28.648438 20.851562 28.621094 20.828125 L 27.691406 19.898438 C 27.644531 19.847656 27.644531 19.769531 27.691406 19.71875 L 28.246094 19.167969 C 28.269531 19.140625 28.300781 19.128906 28.335938 19.128906 C 28.367188 19.128906 28.398438 19.140625 28.425781 19.167969 L 29.355469 20.097656 C 29.402344 20.148438 29.40625 20.226562 29.355469 20.277344 Z M 27.808594 21.820312 L 27.253906 22.375 C 27.230469 22.402344 27.199219 22.410156 27.167969 22.410156 C 27.136719 22.410156 27.101562 22.398438 27.074219 22.375 L 26.148438 21.445312 C 26.097656 21.394531 26.097656 21.316406 26.144531 21.265625 L 26.703125 20.710938 C 26.726562 20.6875 26.757812 20.675781 26.789062 20.675781 C 26.820312 20.675781 26.851562 20.6875 26.878906 20.714844 L 27.808594 21.644531 C 27.859375 21.691406 27.859375 21.773438 27.808594 21.820312 Z M 26.265625 23.367188 L 25.710938 23.921875 C 25.6875 23.945312 25.652344 23.957031 25.625 23.957031 C 25.589844 23.957031 25.554688 23.945312 25.53125 23.917969 L 24.601562 22.988281 C 24.550781 22.941406 24.550781 22.859375 24.601562 22.8125 L 25.15625 22.257812 C 25.179688 22.234375 25.210938 22.222656 25.242188 22.222656 C 25.273438 22.222656 25.308594 22.234375 25.332031 22.257812 L 26.261719 23.1875 C 26.3125 23.238281 26.3125 23.320312 26.265625 23.367188 Z M 24.71875 24.914062 L 24.164062 25.464844 C 24.140625 25.492188 24.109375 25.503906 24.078125 25.503906 C 24.042969 25.503906 24.011719 25.492188 23.984375 25.464844 L 23.054688 24.535156 C 23.007812 24.484375 23.007812 24.40625 23.054688 24.359375 L 23.609375 23.800781 C 23.632812 23.777344 23.664062 23.769531 23.695312 23.769531 C 23.730469 23.769531 23.761719 23.78125 23.789062 23.804688 L 24.714844 24.734375 C 24.765625 24.785156 24.769531 24.863281 24.71875 24.914062 Z M 23.171875 26.457031 L 22.617188 27.015625 C 22.59375 27.035156 22.5625 27.050781 22.53125 27.050781 C 22.496094 27.050781 22.464844 27.035156 22.4375 27.011719 L 21.511719 26.082031 C 21.460938 26.03125 21.460938 25.953125 21.511719 25.902344 L 22.0625 25.347656 C 22.078125 25.335938 22.09375 25.324219 22.113281 25.320312 C 22.128906 25.316406 22.140625 25.3125 22.152344 25.3125 C 22.183594 25.3125 22.214844 25.324219 22.242188 25.351562 L 23.171875 26.28125 C 23.222656 26.328125 23.222656 26.410156 23.171875 26.457031 Z M 20.917969 24.832031 L 18.683594 22.597656 L 16.539062 20.457031 C 16.320312 20.234375 16.320312 19.878906 16.539062 19.660156 L 20.433594 15.765625 L 23.441406 12.761719 L 23.546875 12.652344 C 23.65625 12.542969 23.804688 12.488281 23.945312 12.488281 C 24.089844 12.488281 24.234375 12.542969 24.34375 12.652344 L 27.039062 15.347656 L 28.71875 17.03125 C 28.941406 17.25 28.941406 17.605469 28.71875 17.828125 L 21.714844 24.832031 C 21.605469 24.941406 21.460938 24.996094 21.316406 24.996094 C 21.171875 24.996094 21.027344 24.941406 20.917969 24.832031 Z M 15.910156 17.386719 C 15.859375 17.339844 15.859375 17.257812 15.90625 17.210938 L 16.460938 16.65625 C 16.484375 16.632812 16.515625 16.621094 16.546875 16.621094 C 16.582031 16.621094 16.613281 16.632812 16.640625 16.660156 L 17.566406 17.585938 C 17.617188 17.636719 17.621094 17.71875 17.570312 17.765625 L 17.015625 18.320312 C 16.992188 18.34375 16.960938 18.355469 16.929688 18.355469 C 16.894531 18.355469 16.863281 18.34375 16.835938 18.316406 Z M 16.027344 19.3125 L 15.46875 19.867188 C 15.445312 19.890625 15.414062 19.902344 15.382812 19.902344 C 15.351562 19.902344 15.316406 19.890625 15.292969 19.863281 L 14.363281 18.933594 C 14.3125 18.886719 14.3125 18.804688 14.359375 18.757812 L 14.917969 18.199219 C 14.941406 18.179688 14.96875 18.164062 15.003906 18.164062 C 15.035156 18.164062 15.066406 18.179688 15.09375 18.203125 L 16.023438 19.132812 C 16.074219 19.183594 16.074219 19.261719 16.027344 19.3125 Z M 17.453125 15.664062 L 18.007812 15.109375 C 18.03125 15.085938 18.0625 15.074219 18.09375 15.074219 C 18.128906 15.074219 18.160156 15.085938 18.183594 15.109375 L 19.113281 16.042969 C 19.164062 16.089844 19.164062 16.171875 19.117188 16.21875 L 18.5625 16.773438 C 18.539062 16.796875 18.507812 16.808594 18.476562 16.808594 C 18.441406 16.808594 18.40625 16.796875 18.382812 16.773438 L 17.453125 15.84375 C 17.402344 15.792969 17.402344 15.710938 17.453125 15.664062 Z M 19 14.117188 L 19.554688 13.566406 C 19.578125 13.539062 19.609375 13.527344 19.640625 13.527344 C 19.671875 13.527344 19.707031 13.539062 19.730469 13.566406 L 20.660156 14.496094 C 20.710938 14.542969 20.710938 14.625 20.664062 14.671875 L 20.109375 15.226562 C 20.085938 15.253906 20.050781 15.265625 20.019531 15.265625 C 19.988281 15.265625 19.953125 15.25 19.929688 15.226562 L 19 14.296875 C 18.949219 14.246094 18.949219 14.167969 19 14.117188 Z M 20.542969 12.574219 L 21.097656 12.019531 C 21.125 11.992188 21.15625 11.980469 21.1875 11.980469 C 21.21875 11.980469 21.253906 11.992188 21.277344 12.019531 L 22.207031 12.949219 C 22.253906 13 22.257812 13.078125 22.207031 13.128906 L 21.652344 13.683594 C 21.628906 13.707031 21.597656 13.71875 21.566406 13.71875 C 21.535156 13.71875 21.5 13.707031 21.472656 13.679688 L 20.546875 12.75 C 20.496094 12.699219 20.496094 12.621094 20.542969 12.574219 Z M 22.089844 11.027344 L 22.644531 10.472656 C 22.667969 10.449219 22.699219 10.4375 22.734375 10.4375 C 22.765625 10.4375 22.796875 10.449219 22.824219 10.472656 L 23.753906 11.402344 C 23.800781 11.453125 23.804688 11.53125 23.753906 11.582031 L 23.199219 12.136719 C 23.175781 12.160156 23.144531 12.171875 23.113281 12.171875 C 23.078125 12.171875 23.046875 12.160156 23.019531 12.132812 L 22.089844 11.207031 C 22.042969 11.15625 22.039062 11.074219 22.089844 11.027344 Z M 32.167969 17.464844 L 31.894531 17.738281 C 31.871094 17.761719 31.835938 17.773438 31.804688 17.773438 C 31.773438 17.773438 31.738281 17.761719 31.714844 17.734375 L 30.785156 16.808594 C 30.734375 16.757812 30.734375 16.675781 30.785156 16.628906 L 31.054688 16.355469 L 30.625 15.921875 L 29.976562 16.570312 C 29.867188 16.679688 29.722656 16.734375 29.578125 16.734375 C 29.433594 16.734375 29.289062 16.679688 29.179688 16.570312 L 24.804688 12.195312 C 24.585938 11.972656 24.585938 11.617188 24.804688 11.398438 L 25.453125 10.75 L 25.019531 10.316406 L 24.746094 10.589844 C 24.722656 10.613281 24.691406 10.625 24.65625 10.625 C 24.625 10.625 24.589844 10.613281 24.566406 10.589844 L 23.636719 9.660156 C 23.589844 9.609375 23.589844 9.53125 23.636719 9.480469 L 23.910156 9.210938 L 23.617188 8.914062 L 18.085938 14.445312 L 16.417969 16.109375 L 12.804688 19.726562 L 13.097656 20.019531 L 13.371094 19.746094 C 13.394531 19.722656 13.425781 19.710938 13.457031 19.710938 C 13.492188 19.710938 13.523438 19.722656 13.546875 19.75 L 14.476562 20.675781 C 14.527344 20.726562 14.527344 20.808594 14.480469 20.855469 L 14.207031 21.128906 L 14.636719 21.5625 L 15.285156 20.914062 C 15.394531 20.804688 15.539062 20.75 15.683594 20.75 C 15.828125 20.75 15.972656 20.804688 16.082031 20.914062 L 17.820312 22.648438 L 20.460938 25.292969 C 20.679688 25.511719 20.679688 25.867188 20.460938 26.089844 L 19.8125 26.734375 L 20.246094 27.167969 L 20.515625 26.894531 C 20.542969 26.871094 20.574219 26.859375 20.605469 26.859375 C 20.636719 26.859375 20.671875 26.871094 20.695312 26.898438 L 21.625 27.824219 C 21.675781 27.875 21.675781 27.957031 21.628906 28.003906 L 21.355469 28.277344 L 21.648438 28.570312 L 25.371094 24.847656 L 30.445312 19.777344 L 32.460938 17.757812 L 32.167969 17.464844 " fill-opacity="1" fill-rule="nonzero"/></svg>