<svg xmlns="http://www.w3.org/2000/svg" xmlns:xlink="http://www.w3.org/1999/xlink" width="250" zoomAndPan="magnify" viewBox="0 0 187.5 37.5" height="50" preserveAspectRatio="xMidYMid meet" version="1.0"><defs><g/><clipPath id="8f2ac16ecc"><path d="M 40.664062 5.558594 L 64.347656 5.558594 L 64.347656 29.242188 L 40.664062 29.242188 Z M 40.664062 5.558594 " clip-rule="nonzero"/></clipPath></defs><g fill="#ffffff" fill-opacity="1"><g transform="translate(12.381995, 34.792922)"><g><path d="M 22 -26.6875 L 26.25 -5.1875 L 21.015625 -4.15625 L 18.46875 -17.046875 L 16.203125 -3.203125 L 11.96875 -2.359375 L 4.59375 -14.328125 L 7.140625 -1.40625 L 1.90625 -0.375 L -2.34375 -21.875 L 3.828125 -23.09375 L 12.8125 -9.421875 L 15.84375 -25.46875 Z M 22 -26.6875 "/></g></g></g><g fill="#ffffff" fill-opacity="1"><g transform="translate(40.022688, 29.594394)"><g/></g></g><g fill="#ffffff" fill-opacity="1"><g transform="translate(46.374527, 28.661254)"><g/></g></g><g fill="#ffffff" fill-opacity="1"><g transform="translate(52.742626, 27.846429)"><g/></g></g><g fill="#ffffff" fill-opacity="1"><g transform="translate(59.124778, 27.150198)"><g/></g></g><g fill="#ffffff" fill-opacity="1"><g transform="translate(65.268867, 26.420289)"><g><path d="M 21.421875 -22.984375 L 14.71875 -0.71875 L 8.03125 -0.390625 L -0.78125 -21.90625 L 4.90625 -22.171875 L 11.109375 -5.921875 L 15.78125 -22.703125 Z M 21.421875 -22.984375 "/></g></g></g><g fill="#ffffff" fill-opacity="1"><g transform="translate(87.557085, 25.481964)"><g><path d="M 7.203125 -21.953125 L 7.28125 -0.03125 L 1.9375 0 L 1.859375 -21.921875 Z M 7.203125 -21.953125 "/></g></g></g><g fill="#ffffff" fill-opacity="1"><g transform="translate(96.378532, 25.373865)"><g><path d="M 7.859375 -17.390625 L 7.71875 -12.96875 L 14.84375 -12.71875 L 14.703125 -8.59375 L 7.578125 -8.84375 L 7.421875 -4.046875 L 15.484375 -3.765625 L 15.34375 0.515625 L 1.9375 0.0625 L 2.671875 -21.84375 L 16.078125 -21.390625 L 15.921875 -17.109375 Z M 7.859375 -17.390625 "/></g></g></g><g fill="#ffffff" fill-opacity="1"><g transform="translate(112.753278, 25.903685)"><g><path d="M 17.921875 -20.53125 L 17.578125 -16.265625 L 8.671875 -16.984375 L 8.296875 -12.375 L 14.953125 -11.84375 L 14.625 -7.703125 L 7.96875 -8.234375 L 7.25 0.59375 L 1.9375 0.15625 L 3.703125 -21.6875 Z M 17.921875 -20.53125 "/></g></g></g><g fill="#ffffff" fill-opacity="1"><g transform="translate(129.296961, 27.259624)"><g><path d="M 7.734375 -3.1875 L 14.671875 -2.296875 L 14.15625 1.796875 L 1.921875 0.25 L 4.671875 -21.5 L 9.96875 -20.84375 Z M 7.734375 -3.1875 "/></g></g></g><g fill="#ffffff" fill-opacity="1"><g transform="translate(143.706304, 29.125062)"><g><path d="M 10.671875 -20.484375 L 7.1875 1.15625 L 1.90625 0.3125 L 5.390625 -21.328125 Z M 10.671875 -20.484375 "/></g></g></g><g fill="#ffffff" fill-opacity="1"><g transform="translate(152.363729, 30.362423)"><g><path d="M 15.046875 3.109375 L 12.03125 -4.375 L 6.828125 1.40625 L 0.890625 0.1875 L 10 -9.296875 L 5.171875 -21.3125 L 11.265625 -20.0625 L 14.21875 -12.6875 L 19.359375 -18.375 L 25.296875 -17.15625 L 16.234375 -7.734375 L 21.125 4.375 Z M 15.046875 3.109375 "/></g></g></g><g clip-path="url(#8f2ac16ecc)"><path fill="#a0191c" d="M 62.03125 22.972656 C 61.339844 24.167969 59.949219 24.707031 58.675781 24.371094 L 55.183594 27.863281 L 54.804688 27.484375 C 54.261719 28.03125 53.507812 28.371094 52.679688 28.371094 C 51.027344 28.371094 49.683594 27.03125 49.683594 25.378906 C 49.683594 24.117188 50.464844 23.039062 51.570312 22.597656 L 50.476562 21.503906 L 50.027344 21.949219 L 49.648438 22.328125 L 48.910156 21.589844 C 48.871094 22.582031 48.339844 23.535156 47.417969 24.070312 C 45.984375 24.894531 44.152344 24.402344 43.328125 22.972656 C 42.5 21.539062 42.988281 19.707031 44.421875 18.882812 C 45.65625 18.167969 47.191406 18.4375 48.121094 19.445312 L 56.355469 11.203125 L 56.738281 10.824219 L 57.117188 11.203125 L 57.347656 11.4375 L 57.394531 11.484375 C 57.558594 11.332031 57.738281 11.191406 57.941406 11.078125 C 59.371094 10.25 61.203125 10.742188 62.03125 12.171875 C 62.855469 13.605469 62.367188 15.4375 60.933594 16.261719 C 60.847656 16.3125 60.753906 16.359375 60.664062 16.402344 L 61.445312 17.183594 L 62.269531 16.359375 L 62.648438 16.738281 L 62.992188 17.078125 L 63.371094 17.460938 L 64.476562 18.566406 L 62.332031 20.714844 C 62.527344 21.449219 62.441406 22.261719 62.03125 22.972656 Z M 43.328125 12.171875 C 44.152344 10.742188 45.984375 10.25 47.417969 11.078125 C 48.847656 11.90625 49.335938 13.734375 48.511719 15.167969 C 47.683594 16.601562 45.855469 17.089844 44.421875 16.261719 C 42.988281 15.4375 42.5 13.605469 43.328125 12.171875 Z M 52.679688 6.773438 C 54.332031 6.773438 55.671875 8.113281 55.671875 9.765625 C 55.671875 11.417969 54.332031 12.761719 52.679688 12.761719 C 51.027344 12.761719 49.683594 11.417969 49.683594 9.765625 C 49.683594 8.113281 51.027344 6.773438 52.679688 6.773438 Z M 52.679688 5.558594 C 46.042969 5.558594 40.664062 10.9375 40.664062 17.574219 C 40.664062 24.207031 46.042969 29.585938 52.679688 29.585938 C 59.3125 29.585938 64.695312 24.207031 64.695312 17.574219 C 64.695312 10.9375 59.3125 5.558594 52.679688 5.558594 " fill-opacity="1" fill-rule="nonzero"/></g><path fill="#a0191c" d="M 62.488281 19.335938 L 62.050781 19.773438 C 62.03125 19.792969 62.007812 19.800781 61.980469 19.800781 C 61.957031 19.800781 61.929688 19.789062 61.910156 19.769531 L 61.175781 19.035156 C 61.136719 18.996094 61.136719 18.933594 61.175781 18.894531 L 61.613281 18.457031 C 61.632812 18.4375 61.65625 18.429688 61.683594 18.429688 C 61.707031 18.429688 61.734375 18.4375 61.753906 18.460938 L 62.488281 19.191406 C 62.527344 19.230469 62.527344 19.296875 62.488281 19.335938 Z M 61.269531 20.554688 L 60.832031 20.992188 C 60.8125 21.011719 60.785156 21.019531 60.761719 21.019531 C 60.734375 21.019531 60.710938 21.011719 60.691406 20.992188 L 59.957031 20.257812 C 59.917969 20.21875 59.917969 20.15625 59.957031 20.117188 L 60.394531 19.679688 C 60.414062 19.660156 60.4375 19.648438 60.460938 19.648438 C 60.488281 19.648438 60.515625 19.660156 60.535156 19.679688 L 61.269531 20.414062 C 61.304688 20.453125 61.308594 20.515625 61.269531 20.554688 Z M 60.046875 21.773438 L 59.609375 22.210938 C 59.59375 22.230469 59.566406 22.242188 59.542969 22.242188 C 59.515625 22.242188 59.488281 22.230469 59.46875 22.210938 L 58.734375 21.476562 C 58.695312 21.4375 58.695312 21.375 58.734375 21.335938 L 59.171875 20.898438 C 59.191406 20.878906 59.214844 20.871094 59.242188 20.871094 C 59.265625 20.871094 59.292969 20.878906 59.3125 20.898438 L 60.046875 21.632812 C 60.085938 21.671875 60.085938 21.734375 60.046875 21.773438 Z M 58.828125 22.996094 L 58.390625 23.433594 C 58.371094 23.453125 58.347656 23.460938 58.320312 23.460938 C 58.292969 23.460938 58.269531 23.449219 58.25 23.429688 L 57.515625 22.699219 C 57.476562 22.660156 57.476562 22.59375 57.515625 22.558594 L 57.953125 22.121094 C 57.972656 22.101562 57.996094 22.089844 58.019531 22.089844 C 58.046875 22.089844 58.074219 22.101562 58.09375 22.121094 L 58.828125 22.855469 C 58.867188 22.890625 58.867188 22.957031 58.828125 22.996094 Z M 57.609375 24.214844 L 57.167969 24.652344 C 57.148438 24.671875 57.125 24.683594 57.101562 24.683594 C 57.074219 24.683594 57.050781 24.671875 57.027344 24.652344 L 56.296875 23.917969 C 56.253906 23.878906 56.253906 23.816406 56.292969 23.777344 L 56.730469 23.339844 C 56.75 23.320312 56.777344 23.3125 56.800781 23.3125 C 56.828125 23.3125 56.851562 23.320312 56.871094 23.339844 L 57.605469 24.074219 C 57.644531 24.113281 57.648438 24.175781 57.609375 24.214844 Z M 56.386719 25.4375 L 55.949219 25.875 C 55.929688 25.894531 55.90625 25.902344 55.878906 25.902344 C 55.855469 25.902344 55.828125 25.894531 55.808594 25.871094 L 55.074219 25.140625 C 55.035156 25.101562 55.035156 25.035156 55.074219 24.996094 L 55.511719 24.558594 C 55.523438 24.546875 55.535156 24.539062 55.550781 24.539062 C 55.5625 24.53125 55.570312 24.53125 55.582031 24.53125 C 55.605469 24.53125 55.632812 24.542969 55.652344 24.5625 L 56.386719 25.296875 C 56.425781 25.335938 56.425781 25.398438 56.386719 25.4375 Z M 54.609375 24.152344 L 52.84375 22.390625 L 51.152344 20.695312 C 50.976562 20.523438 50.976562 20.242188 51.152344 20.066406 L 52.101562 19.121094 L 54.226562 16.996094 L 56.597656 14.621094 L 56.683594 14.535156 C 56.769531 14.449219 56.886719 14.40625 57 14.40625 C 57.113281 14.40625 57.226562 14.449219 57.3125 14.535156 L 59.441406 16.664062 L 60.765625 17.992188 C 60.941406 18.164062 60.941406 18.449219 60.765625 18.621094 L 55.234375 24.152344 C 55.148438 24.238281 55.035156 24.28125 54.921875 24.28125 C 54.808594 24.28125 54.695312 24.238281 54.609375 24.152344 Z M 50.652344 18.273438 C 50.613281 18.234375 50.613281 18.171875 50.652344 18.132812 L 51.089844 17.695312 C 51.105469 17.675781 51.132812 17.667969 51.15625 17.667969 C 51.183594 17.667969 51.207031 17.679688 51.230469 17.699219 L 51.960938 18.429688 C 52.003906 18.472656 52.003906 18.535156 51.964844 18.574219 L 51.527344 19.011719 C 51.507812 19.027344 51.484375 19.039062 51.457031 19.039062 C 51.433594 19.039062 51.40625 19.027344 51.386719 19.007812 Z M 50.746094 19.792969 L 50.304688 20.230469 C 50.289062 20.25 50.261719 20.257812 50.238281 20.257812 C 50.210938 20.257812 50.1875 20.25 50.164062 20.230469 L 49.433594 19.496094 C 49.390625 19.457031 49.390625 19.394531 49.429688 19.355469 L 49.867188 18.917969 C 49.886719 18.898438 49.910156 18.886719 49.9375 18.886719 C 49.960938 18.886719 49.988281 18.898438 50.007812 18.917969 L 50.742188 19.652344 C 50.78125 19.691406 50.78125 19.753906 50.746094 19.792969 Z M 51.871094 16.914062 L 52.308594 16.476562 C 52.328125 16.457031 52.351562 16.445312 52.378906 16.445312 C 52.402344 16.445312 52.429688 16.457031 52.449219 16.476562 L 53.183594 17.210938 C 53.222656 17.25 53.222656 17.3125 53.183594 17.351562 L 52.746094 17.789062 C 52.730469 17.808594 52.703125 17.816406 52.679688 17.816406 C 52.652344 17.816406 52.625 17.808594 52.605469 17.789062 L 51.871094 17.054688 C 51.832031 17.015625 51.832031 16.953125 51.871094 16.914062 Z M 53.089844 15.691406 L 53.53125 15.257812 C 53.546875 15.234375 53.574219 15.226562 53.597656 15.226562 C 53.625 15.226562 53.648438 15.238281 53.671875 15.257812 L 54.402344 15.992188 C 54.445312 16.03125 54.445312 16.09375 54.40625 16.132812 L 53.980469 16.554688 L 53.96875 16.570312 C 53.949219 16.589844 53.921875 16.597656 53.898438 16.597656 C 53.875 16.597656 53.847656 16.585938 53.824219 16.566406 L 53.09375 15.835938 C 53.054688 15.792969 53.054688 15.730469 53.089844 15.691406 Z M 54.3125 14.472656 L 54.75 14.035156 C 54.769531 14.015625 54.792969 14.007812 54.820312 14.007812 C 54.84375 14.007812 54.871094 14.015625 54.890625 14.035156 L 55.625 14.769531 C 55.664062 14.808594 55.664062 14.871094 55.625 14.910156 L 55.1875 15.347656 C 55.167969 15.367188 55.144531 15.375 55.117188 15.375 C 55.09375 15.375 55.066406 15.367188 55.046875 15.347656 L 54.3125 14.613281 C 54.273438 14.574219 54.273438 14.511719 54.3125 14.472656 Z M 55.53125 13.25 L 55.96875 12.816406 C 55.988281 12.796875 56.015625 12.785156 56.039062 12.785156 C 56.066406 12.785156 56.089844 12.796875 56.109375 12.816406 L 56.484375 13.1875 L 56.84375 13.550781 C 56.882812 13.589844 56.886719 13.652344 56.847656 13.691406 L 56.410156 14.128906 C 56.390625 14.148438 56.363281 14.15625 56.339844 14.15625 C 56.3125 14.15625 56.285156 14.148438 56.265625 14.125 L 55.535156 13.394531 C 55.496094 13.355469 55.492188 13.289062 55.53125 13.25 Z M 63.488281 18.335938 L 63.273438 18.550781 C 63.253906 18.570312 63.226562 18.578125 63.203125 18.578125 C 63.175781 18.578125 63.148438 18.570312 63.128906 18.550781 L 62.398438 17.816406 C 62.355469 17.777344 62.359375 17.714844 62.394531 17.675781 L 62.613281 17.460938 L 62.269531 17.117188 L 61.757812 17.628906 C 61.671875 17.714844 61.558594 17.757812 61.445312 17.757812 C 61.332031 17.757812 61.21875 17.714844 61.128906 17.628906 L 57.675781 14.175781 C 57.5 14 57.5 13.71875 57.675781 13.546875 L 58.1875 13.035156 L 57.84375 12.691406 L 57.628906 12.90625 C 57.609375 12.925781 57.585938 12.9375 57.558594 12.9375 C 57.535156 12.9375 57.507812 12.925781 57.488281 12.90625 L 56.753906 12.171875 C 56.714844 12.132812 56.714844 12.070312 56.753906 12.03125 L 56.96875 11.816406 L 56.738281 11.585938 L 52.371094 15.949219 L 48.199219 20.121094 L 48.433594 20.351562 L 48.648438 20.136719 C 48.667969 20.117188 48.691406 20.109375 48.71875 20.109375 C 48.742188 20.109375 48.769531 20.117188 48.789062 20.140625 L 49.523438 20.871094 C 49.5625 20.910156 49.5625 20.976562 49.523438 21.011719 L 49.308594 21.230469 L 49.648438 21.570312 L 50.160156 21.058594 C 50.246094 20.972656 50.363281 20.929688 50.476562 20.929688 C 50.589844 20.929688 50.703125 20.972656 50.789062 21.058594 L 54.246094 24.515625 C 54.417969 24.6875 54.417969 24.96875 54.246094 25.144531 L 53.734375 25.65625 L 54.074219 25.996094 L 54.289062 25.78125 C 54.308594 25.761719 54.335938 25.753906 54.359375 25.753906 C 54.386719 25.753906 54.414062 25.761719 54.429688 25.78125 L 55.164062 26.515625 C 55.203125 26.554688 55.207031 26.617188 55.167969 26.65625 L 54.953125 26.871094 L 55.183594 27.105469 L 58.121094 24.164062 L 62.128906 20.160156 L 63.71875 18.566406 L 63.488281 18.335938 " fill-opacity="1" fill-rule="nonzero"/></svg>